<svg width="60" height="60" viewBox="0 0 60 60" fill="none" xmlns="http://www.w3.org/2000/svg">
<g clip-path="url(#clip0_24_38)">
<g filter="url(#filter0_d_24_38)">
<circle cx="30" cy="27" r="25" fill="#F47C2A"/>
</g>
<g filter="url(#filter1_d_24_38)">
<path d="M35.2597 42H19.4485C19.2008 42 19 41.7992 19 41.5515V12.4485C19 12.2008 19.2008 12 19.4485 12H41.2252C41.4723 12 41.6729 12.1945 41.6737 12.4416C41.7008 20.4834 41.7365 35.7147 41.6722 35.649C41.6081 35.5836 37.6683 39.678 35.583 41.8624C35.4983 41.9511 35.3823 42 35.2597 42Z" fill="#F47C2A"/>
<path d="M35.2597 42H19.4485C19.2008 42 19 41.7992 19 41.5515V12.4485C19 12.2008 19.2008 12 19.4485 12H41.2252C41.4723 12 41.6729 12.1945 41.6737 12.4416C41.7008 20.4834 41.7365 35.7147 41.6722 35.649C41.6081 35.5836 37.6683 39.678 35.583 41.8624C35.4983 41.9511 35.3823 42 35.2597 42Z" stroke="white" stroke-width="0.897026"/>
</g>
<path d="M35.4585 41.7917V35.5417L41.28 35.5652" stroke="white" stroke-width="1.12128" stroke-linecap="round" stroke-linejoin="round"/>
<path d="M32.7104 16.1797L33.8679 18.0888L37.9188 13.7138" stroke="white" stroke-width="1.12128" stroke-linecap="round"/>
<path d="M23.3927 16.6833C24.1673 16.6834 24.795 17.3111 24.795 18.0857C24.795 18.8602 24.1672 19.488 23.3927 19.488C22.6181 19.488 21.9904 18.8602 21.9904 18.0857C21.9904 17.3111 22.6181 16.6833 23.3927 16.6833Z" stroke="white" stroke-width="0.448513"/>
<path d="M37.3832 16.6833C38.1577 16.6834 38.7855 17.3111 38.7855 18.0857C38.7855 18.8602 38.1577 19.488 37.3832 19.488C36.6086 19.488 35.9809 18.8602 35.9808 18.0857C35.9808 17.3111 36.6086 16.6833 37.3832 16.6833Z" stroke="white" stroke-width="0.448513"/>
<path d="M27.2964 17.1147C27.8324 17.1147 28.267 17.5495 28.2671 18.0854C28.2671 18.6215 27.8324 19.0562 27.2964 19.0562C26.7604 19.0561 26.3257 18.6215 26.3257 18.0854C26.3257 17.5495 26.7604 17.1148 27.2964 17.1147Z" stroke="white" stroke-width="0.336385"/>
<path d="M33.4783 17.1147C34.0143 17.1147 34.4489 17.5495 34.449 18.0854C34.449 18.6215 34.0143 19.0562 33.4783 19.0562C32.9423 19.0561 32.5076 18.6215 32.5076 18.0854C32.5076 17.5495 32.9423 17.1148 33.4783 17.1147Z" stroke="white" stroke-width="0.336385"/>
<path d="M30.3879 17.4401C30.7443 17.4401 31.0334 17.7293 31.0334 18.0856C31.0334 18.4419 30.7442 18.7311 30.3879 18.7311C30.0316 18.7311 29.7425 18.4419 29.7424 18.0856C29.7424 17.7293 30.0316 17.4401 30.3879 17.4401Z" stroke="white" stroke-width="0.336385"/>
<path d="M22.0911 20.6885H38.6847" stroke="white" stroke-width="0.67277" stroke-linecap="round" stroke-linejoin="round"/>
<path d="M23.3927 22.7026C24.1673 22.7027 24.795 23.3304 24.795 24.105C24.795 24.8795 24.1672 25.5072 23.3927 25.5073C22.6181 25.5073 21.9904 24.8795 21.9904 24.105C21.9904 23.3303 22.6181 22.7026 23.3927 22.7026Z" stroke="white" stroke-width="0.448513"/>
<path d="M37.3832 22.7026C38.1577 22.7027 38.7855 23.3304 38.7855 24.105C38.7855 24.8795 38.1577 25.5072 37.3832 25.5073C36.6086 25.5073 35.9809 24.8795 35.9808 24.105C35.9808 23.3303 36.6086 22.7026 37.3832 22.7026Z" stroke="white" stroke-width="0.448513"/>
<path d="M27.2964 23.134C27.8324 23.134 28.267 23.5687 28.2671 24.1047C28.2671 24.6408 27.8324 25.0754 27.2964 25.0754C26.7604 25.0754 26.3257 24.6407 26.3257 24.1047C26.3257 23.5688 26.7604 23.1341 27.2964 23.134Z" stroke="white" stroke-width="0.336385"/>
<path d="M33.4783 23.134C34.0143 23.134 34.4489 23.5687 34.449 24.1047C34.449 24.6408 34.0143 25.0754 33.4783 25.0754C32.9423 25.0754 32.5076 24.6407 32.5076 24.1047C32.5076 23.5688 32.9423 23.1341 33.4783 23.134Z" stroke="white" stroke-width="0.336385"/>
<path d="M30.3879 23.4594C30.7443 23.4594 31.0334 23.7486 31.0334 24.1049C31.0334 24.4612 30.7442 24.7504 30.3879 24.7504C30.0316 24.7504 29.7425 24.4612 29.7424 24.1049C29.7424 23.7486 30.0316 23.4594 30.3879 23.4594Z" stroke="white" stroke-width="0.336385"/>
<path d="M22.0911 26.7078H38.6847" stroke="white" stroke-width="0.67277" stroke-linecap="round" stroke-linejoin="round"/>
<path d="M23.3927 28.7219C24.1673 28.722 24.795 29.3497 24.795 30.1243C24.795 30.8988 24.1672 31.5265 23.3927 31.5266C22.6181 31.5266 21.9904 30.8988 21.9904 30.1243C21.9904 29.3496 22.6181 28.7219 23.3927 28.7219Z" stroke="white" stroke-width="0.448513"/>
<path d="M37.3832 28.7219C38.1577 28.722 38.7855 29.3497 38.7855 30.1243C38.7855 30.8988 38.1577 31.5265 37.3832 31.5266C36.6086 31.5266 35.9809 30.8988 35.9808 30.1243C35.9808 29.3496 36.6086 28.7219 37.3832 28.7219Z" stroke="white" stroke-width="0.448513"/>
<path d="M27.2964 29.1533C27.8324 29.1533 28.267 29.588 28.2671 30.124C28.2671 30.6601 27.8324 31.0947 27.2964 31.0947C26.7604 31.0947 26.3257 30.66 26.3257 30.124C26.3257 29.5881 26.7604 29.1534 27.2964 29.1533Z" stroke="white" stroke-width="0.336385"/>
<path d="M33.4783 29.1533C34.0143 29.1533 34.4489 29.588 34.449 30.124C34.449 30.6601 34.0143 31.0947 33.4783 31.0947C32.9423 31.0947 32.5076 30.66 32.5076 30.124C32.5076 29.5881 32.9423 29.1534 33.4783 29.1533Z" stroke="white" stroke-width="0.336385"/>
<path d="M30.3879 29.4787C30.7443 29.4787 31.0334 29.7679 31.0334 30.1242C31.0334 30.4805 30.7442 30.7697 30.3879 30.7697C30.0316 30.7697 29.7425 30.4805 29.7424 30.1242C29.7424 29.7678 30.0316 29.4787 30.3879 29.4787Z" stroke="white" stroke-width="0.336385"/>
<path d="M22.0911 32.7271H38.6847" stroke="white" stroke-width="0.67277" stroke-linecap="round" stroke-linejoin="round"/>
</g>
<defs>
<filter id="filter0_d_24_38" x="0" y="2" width="60" height="61" filterUnits="userSpaceOnUse" color-interpolation-filters="sRGB">
<feFlood flood-opacity="0" result="BackgroundImageFix"/>
<feColorMatrix in="SourceAlpha" type="matrix" values="0 0 0 0 0 0 0 0 0 0 0 0 0 0 0 0 0 0 127 0" result="hardAlpha"/>
<feOffset dy="6"/>
<feGaussianBlur stdDeviation="2.5"/>
<feComposite in2="hardAlpha" operator="out"/>
<feColorMatrix type="matrix" values="0 0 0 0 0 0 0 0 0 0 0 0 0 0 0 0 0 0 0.25 0"/>
<feBlend mode="normal" in2="BackgroundImageFix" result="effect1_dropShadow_24_38"/>
<feBlend mode="normal" in="SourceGraphic" in2="effect1_dropShadow_24_38" result="shape"/>
</filter>
<filter id="filter1_d_24_38" x="17.6545" y="11.5515" width="25.3994" height="32.6911" filterUnits="userSpaceOnUse" color-interpolation-filters="sRGB">
<feFlood flood-opacity="0" result="BackgroundImageFix"/>
<feColorMatrix in="SourceAlpha" type="matrix" values="0 0 0 0 0 0 0 0 0 0 0 0 0 0 0 0 0 0 127 0" result="hardAlpha"/>
<feOffset dy="0.897026"/>
<feGaussianBlur stdDeviation="0.448513"/>
<feComposite in2="hardAlpha" operator="out"/>
<feColorMatrix type="matrix" values="0 0 0 0 0 0 0 0 0 0 0 0 0 0 0 0 0 0 0.25 0"/>
<feBlend mode="normal" in2="BackgroundImageFix" result="effect1_dropShadow_24_38"/>
<feBlend mode="normal" in="SourceGraphic" in2="effect1_dropShadow_24_38" result="shape"/>
</filter>
<clipPath id="clip0_24_38">
<rect width="60" height="60" fill="white"/>
</clipPath>
</defs>
</svg>
